<svg width="22" height="22" viewBox="0 0 22 22" fill="none" xmlns="http://www.w3.org/2000/svg">
<path d="M11 0.5C5.19969 0.5 0.5 5.19969 0.5 11C0.5 16.8003 5.19969 21.5 11 21.5C16.8003 21.5 21.5 16.8003 21.5 11C21.5 5.19969 16.8003 0.5 11 0.5ZM7.01562 15.5886C6.95119 15.6985 6.85896 15.7895 6.74821 15.8524C6.63745 15.9154 6.51208 15.9481 6.38469 15.9472C6.25485 15.9483 6.12727 15.9133 6.01625 15.8459C5.93359 15.798 5.8612 15.7343 5.80324 15.6583C5.74528 15.5824 5.70288 15.4957 5.67849 15.4034C5.6541 15.311 5.6482 15.2147 5.66111 15.12C5.67403 15.0254 5.70551 14.9342 5.75375 14.8517L6.47047 13.6602C6.50669 13.5987 6.55836 13.5477 6.62036 13.5123C6.68236 13.477 6.75253 13.4585 6.82391 13.4586H6.92984C7.44969 13.4586 7.81344 13.7712 7.91937 14.0741L7.01562 15.5886ZM13.0836 13.2448L8.39 13.25H5.27047C5.17232 13.2504 5.07511 13.2309 4.98474 13.1926C4.89436 13.1543 4.8127 13.0981 4.74472 13.0273C4.67673 12.9565 4.62384 12.8726 4.58924 12.7808C4.55464 12.6889 4.53906 12.591 4.54344 12.493C4.55844 12.0992 4.90203 11.8011 5.29344 11.8011H7.55469L10.2355 7.23781L9.36734 5.75891C9.17188 5.42188 9.25859 4.9775 9.59375 4.76562C9.67638 4.71219 9.76896 4.67601 9.86592 4.65927C9.96289 4.64253 10.0622 4.64557 10.158 4.6682C10.2538 4.69084 10.344 4.73261 10.4232 4.791C10.5024 4.84939 10.569 4.92319 10.6189 5.00797L11.083 5.80062H11.0881L11.5527 5.00797C11.6027 4.92363 11.6691 4.85022 11.7481 4.79213C11.8271 4.73403 11.917 4.69244 12.0124 4.66982C12.1078 4.6472 12.2068 4.64403 12.3034 4.66049C12.4001 4.67695 12.4925 4.71271 12.575 4.76562C12.9083 4.9775 12.9941 5.42188 12.7972 5.76031L11.9291 7.23922L11.0853 8.67781L9.25297 11.8025V11.8077H11.9534C12.2919 11.8077 12.7161 11.9895 12.8877 12.282L12.9027 12.3125C13.0541 12.5698 13.1398 12.7466 13.1398 13.0039C13.1374 13.0875 13.1187 13.1698 13.085 13.2463L13.0836 13.2448ZM16.7281 13.25H15.4573V13.2552L16.3864 14.8353C16.4863 15.0017 16.5169 15.2007 16.4716 15.3895C16.4263 15.5782 16.3087 15.7416 16.1441 15.8445C16.03 15.9141 15.8989 15.9509 15.7653 15.9509C15.6383 15.9509 15.5134 15.918 15.4028 15.8554C15.2923 15.7928 15.1998 15.7027 15.1344 15.5938L13.7614 13.2566L12.9083 11.8034L11.8077 9.92188C11.6482 9.65321 11.5616 9.34764 11.5562 9.03529C11.5509 8.72294 11.6271 8.41458 11.7772 8.14062C11.9947 7.75672 12.1611 7.65594 12.1611 7.65594L14.6094 11.7969H16.7145C17.1083 11.7969 17.4463 12.0997 17.4645 12.4883C17.4683 12.5871 17.4521 12.6856 17.4168 12.778C17.3816 12.8704 17.328 12.9546 17.2594 13.0258C17.1907 13.0969 17.1084 13.1535 17.0174 13.192C16.9263 13.2305 16.8284 13.2503 16.7295 13.25H16.7281Z" fill="#484848"/>
</svg>
