<svg width="20" height="20" viewBox="0 0 20 20" fill="none" xmlns="http://www.w3.org/2000/svg">
<g clip-path="url(#clip0_1736_2163)">
<path d="M6.92726 2.27049C6.99417 2.31056 7.05253 2.36342 7.09901 2.42605C7.14549 2.48867 7.17917 2.55985 7.19814 2.63549C7.21711 2.71114 7.22099 2.78979 7.20955 2.86693C7.19812 2.94408 7.1716 3.01822 7.13151 3.08512L4.10813 8.12368L15.0735 8.12368L12.0489 3.08512C11.968 2.95001 11.9441 2.78828 11.9824 2.6355C12.0207 2.48273 12.1181 2.35143 12.2532 2.27049C12.3883 2.18955 12.55 2.1656 12.7028 2.2039C12.8556 2.24221 12.9869 2.33963 13.0678 2.47474L16.4581 8.12368L18.4971 8.12368C18.6545 8.12368 18.8056 8.18624 18.9169 8.29759C19.0283 8.40894 19.0908 8.55996 19.0908 8.71743L19.0908 9.90493C19.0908 10.0624 19.0283 10.2134 18.9169 10.3248C18.8056 10.4361 18.6545 10.4987 18.4971 10.4987L0.684571 10.4987C0.527099 10.4987 0.376076 10.4361 0.264726 10.3248C0.153377 10.2134 0.0908211 10.0624 0.0908211 9.90493L0.090821 8.71743C0.090821 8.55996 0.153377 8.40894 0.264726 8.29759C0.376076 8.18624 0.527099 8.12368 0.684571 8.12368L2.72351 8.12368L6.11145 2.47474C6.15151 2.40783 6.20437 2.34947 6.267 2.30299C6.32963 2.25651 6.4008 2.22283 6.47645 2.20386C6.55209 2.18489 6.63074 2.18102 6.70789 2.19245C6.78503 2.20388 6.85917 2.2304 6.92607 2.27049L6.92726 2.27049ZM3.02157 19.3171L1.21063 11.6862L17.971 11.6862L16.1601 19.3171C16.1132 19.5113 16.0023 19.6842 15.8453 19.8078C15.6883 19.9314 15.4942 19.9987 15.2944 19.9987L3.88726 19.9987C3.68721 19.9989 3.4929 19.9318 3.33564 19.8082C3.17838 19.6845 3.06733 19.5115 3.02038 19.3171L3.02157 19.3171Z" fill="white"/>
</g>
<defs>
<clipPath id="clip0_1736_2163">
<rect width="19" height="19" fill="white" transform="translate(0.0908203 0.998535)"/>
</clipPath>
</defs>
</svg>
