<svg width="52" height="52" viewBox="0 0 52 52" fill="none" xmlns="http://www.w3.org/2000/svg">
<circle cx="26" cy="26" r="26" fill="#9A9A9A"/>
<path d="M19.9641 37.86L38.439 27.5141C38.7104 27.3621 38.9364 27.1405 39.0937 26.8721C39.2511 26.6037 39.334 26.2982 39.334 25.9871C39.334 25.676 39.2511 25.3706 39.0937 25.1022C38.9364 24.8338 38.7104 24.6122 38.439 24.4602L19.9641 14.1142C19.6533 13.9401 19.2967 13.865 18.942 13.899C18.5873 13.933 18.2515 14.0744 17.9794 14.3044C17.7072 14.5344 17.5118 14.842 17.4192 15.186C17.3265 15.53 17.3411 15.8942 17.461 16.2297L20.9456 25.987L17.461 35.7446C17.3924 35.9357 17.3572 36.1371 17.3569 36.3401C17.3587 36.6448 17.4398 36.9438 17.5923 37.2075C17.7449 37.4712 17.9635 37.6906 18.2267 37.8441C18.4899 37.9975 18.7886 38.0797 19.0933 38.0825C19.3979 38.0853 19.698 38.0086 19.964 37.86L19.9641 37.86ZM22.4916 26.8621L28.8749 26.8621C29.107 26.8621 29.3295 26.77 29.4936 26.6059C29.6577 26.4418 29.7499 26.2192 29.7499 25.9871C29.7499 25.7551 29.6577 25.5325 29.4936 25.3684C29.3295 25.2043 29.107 25.1121 28.8749 25.1121L22.4916 25.1121L19.1099 15.6416L37.5841 25.9871L19.1094 36.3323L22.4916 26.8621Z" fill="#1C2326"/>
</svg>
