<svg width="24" height="22" viewBox="0 0 24 22" fill="none" xmlns="http://www.w3.org/2000/svg">
<path d="M13.2545 15.3541H6.53854C6.24167 15.3541 5.95697 15.4685 5.74705 15.6722C5.53714 15.8759 5.41921 16.1521 5.41921 16.4402C5.41921 16.7282 5.53714 17.0044 5.74705 17.2081C5.95697 17.4118 6.24167 17.5262 6.53854 17.5262H13.2545C13.5514 17.5262 13.8361 17.4118 14.046 17.2081C14.2559 17.0044 14.3738 16.7282 14.3738 16.4402C14.3738 16.1521 14.2559 15.8759 14.046 15.6722C13.8361 15.4685 13.5514 15.3541 13.2545 15.3541ZM8.77719 8.83778H11.0158C11.3127 8.83778 11.5974 8.72335 11.8073 8.51968C12.0172 8.316 12.1352 8.03976 12.1352 7.75172C12.1352 7.46368 12.0172 7.18744 11.8073 6.98377C11.5974 6.78009 11.3127 6.66567 11.0158 6.66567H8.77719C8.48033 6.66567 8.19562 6.78009 7.98571 6.98377C7.77579 7.18744 7.65786 7.46368 7.65786 7.75172C7.65786 8.03976 7.77579 8.316 7.98571 8.51968C8.19562 8.72335 8.48033 8.83778 8.77719 8.83778ZM22.2091 11.0099H18.8511V1.23539C18.8519 1.04402 18.8006 0.855841 18.7023 0.689916C18.604 0.523991 18.4623 0.38621 18.2915 0.290523C18.1213 0.195202 17.9283 0.14502 17.7318 0.14502C17.5353 0.14502 17.3423 0.195202 17.1721 0.290523L13.8142 2.15854L10.4562 0.290523C10.286 0.195202 10.093 0.14502 9.89652 0.14502C9.70004 0.14502 9.50701 0.195202 9.33685 0.290523L5.97887 2.15854L2.62089 0.290523C2.45073 0.195202 2.25771 0.14502 2.06123 0.14502C1.86475 0.14502 1.67173 0.195202 1.50157 0.290523C1.33075 0.38621 1.18903 0.523991 1.09075 0.689916C0.992469 0.855841 0.94112 1.04402 0.941903 1.23539V18.6123C0.941903 19.4764 1.29569 20.3051 1.92543 20.9161C2.55518 21.5272 3.40929 21.8704 4.29988 21.8704H19.9705C20.8611 21.8704 21.7152 21.5272 22.3449 20.9161C22.9747 20.3051 23.3284 19.4764 23.3284 18.6123V12.0959C23.3284 11.8079 23.2105 11.5317 23.0006 11.328C22.7907 11.1243 22.506 11.0099 22.2091 11.0099ZM4.29988 19.6983C4.00302 19.6983 3.71831 19.5839 3.5084 19.3802C3.29849 19.1766 3.18056 18.9003 3.18056 18.6123V3.11427L5.41921 4.35237C5.59197 4.43992 5.78398 4.48564 5.97887 4.48564C6.17377 4.48564 6.36578 4.43992 6.53854 4.35237L9.89652 2.48435L13.2545 4.35237C13.4273 4.43992 13.6193 4.48564 13.8142 4.48564C14.0091 4.48564 14.2011 4.43992 14.3738 4.35237L16.6125 3.11427V18.6123C16.6155 18.9828 16.6836 19.3501 16.814 19.6983H4.29988ZM21.0898 18.6123C21.0898 18.9003 20.9719 19.1766 20.7619 19.3802C20.552 19.5839 20.2673 19.6983 19.9705 19.6983C19.6736 19.6983 19.3889 19.5839 19.179 19.3802C18.9691 19.1766 18.8511 18.9003 18.8511 18.6123V13.182H21.0898V18.6123ZM13.2545 11.0099H6.53854C6.24167 11.0099 5.95697 11.1243 5.74705 11.328C5.53714 11.5317 5.41921 11.8079 5.41921 12.0959C5.41921 12.384 5.53714 12.6602 5.74705 12.8639C5.95697 13.0676 6.24167 13.182 6.53854 13.182H13.2545C13.5514 13.182 13.8361 13.0676 14.046 12.8639C14.2559 12.6602 14.3738 12.384 14.3738 12.0959C14.3738 11.8079 14.2559 11.5317 14.046 11.328C13.8361 11.1243 13.5514 11.0099 13.2545 11.0099Z" fill="#B6B6B6"/>
</svg>
